<?xml version="1.0" encoding="utf-8"?>
<!-- Generator: Adobe Illustrator 23.0.2, SVG Export Plug-In . SVG Version: 6.00 Build 0)  -->
<svg version="1.1" id="Layer_1" xmlns="http://www.w3.org/2000/svg" xmlns:xlink="http://www.w3.org/1999/xlink" x="0px" y="0px"
	 viewBox="0 0 850.39 141.38" style="enable-background:new 0 0 850.39 141.38;" xml:space="preserve">
<g>
	<g>
		<path d="M39.25,98.36l39.31,0.09l-0.09,39.31l-78.62-0.17L0.15,0l39.31,0.09L39.25,98.36z"/>
	</g>
	<g>
		<path d="M126.28,118.21l-7.02,19.64l-39.31-0.09L129.39,0.29l49.14,0.11l48.83,137.7l-39.31-0.09l-6.93-19.67L126.28,118.21z
			 M153.87,41.62l-13.45,37.32l26.73,0.06L153.87,41.62z"/>
	</g>
	<g>
		<path d="M298.11,98.94l0.09-39.31l39.31,0.09l-0.17,78.62l-54.05-0.12c-19-0.04-35.2-6.79-48.6-20.26
			c-13.4-13.46-20.08-29.69-20.04-48.69c0.04-19,6.79-35.2,20.25-48.6c13.46-13.4,29.69-20.08,48.69-20.04l44.22,0.1l-0.09,39.31
			l-44.22-0.1c-8.13-0.02-15.08,2.85-20.85,8.6c-5.78,5.75-8.68,12.69-8.69,20.82c-0.02,8.12,2.85,15.08,8.6,20.85
			c5.75,5.78,12.69,8.68,20.82,8.69L298.11,98.94z"/>
	</g>
	<g>
		<path d="M385.34,118.79l-7.02,19.64L339,138.34L388.45,0.86l49.14,0.11l48.83,137.7l-39.31-0.09l-6.93-19.67L385.34,118.79z
			 M412.92,42.19l-13.45,37.32l26.73,0.06L412.92,42.19z"/>
	</g>
	<g>
		<path d="M527.29,99.45l-0.09,39.31l-39.31-0.09L488.2,1.08l68.79,0.15c32.76,0.07,49.1,16.49,49.03,49.25
			c-0.06,26.21-10.58,41.91-31.55,47.1l41.19,41.37l-49.14-0.11L527.29,99.45z M527.42,40.48l-0.04,19.66l29.48,0.07
			c6.55,0.01,9.84-3.25,9.85-9.81c0.01-6.55-3.25-9.83-9.81-9.85L527.42,40.48z"/>
	</g>
	<g>
		<path d="M682.38,139.11l-39.31-0.09l0.22-98.28l-34.4-0.08l0.09-39.31l108.1,0.24L717,40.9l-34.4-0.08L682.38,139.11z"/>
	</g>
	<g>
		<path d="M781.45,139.33c-19-0.04-35.2-6.79-48.6-20.26c-13.4-13.46-20.08-29.69-20.04-48.69c0.04-19,6.79-35.2,20.25-48.6
			c13.46-13.4,29.69-20.08,48.69-20.04c19,0.04,35.2,6.8,48.6,20.26c13.4,13.46,20.08,29.69,20.04,48.69
			c-0.04,19-6.79,35.2-20.26,48.6C816.68,132.69,800.45,139.37,781.45,139.33z M802.39,91.41c5.78-5.75,8.68-12.69,8.69-20.82
			c0.02-8.12-2.85-15.08-8.6-20.85c-5.75-5.78-12.69-8.68-20.82-8.69c-8.13-0.02-15.08,2.85-20.85,8.6
			c-5.78,5.75-8.68,12.69-8.69,20.82c-0.02,8.12,2.85,15.08,8.6,20.85c5.75,5.78,12.69,8.68,20.82,8.69
			C789.66,100.03,796.61,97.17,802.39,91.41z"/>
	</g>
</g>
</svg>
